<svg id="Layer_1" data-name="Layer 1" xmlns="http://www.w3.org/2000/svg" viewBox="0 0 435.46 414.45"><defs><style>.cls-1{fill:#594797;}.cls-2{fill:#94cc2c;}.cls-3{fill:#ffccb2;}</style></defs><path class="cls-1" d="M739,523.89a14.36,14.36,0,1,1-14.36-14.35A14.36,14.36,0,0,1,739,523.89Z" transform="translate(-321.54 -223.74)"/><path class="cls-1" d="M619.07,338.61h-17v-35a62.9,62.9,0,1,0-125.79,0v35h-17v-35a79.89,79.89,0,0,1,159.78,0Z" transform="translate(-321.54 -223.74)"/><path class="cls-2" d="M648.18,488.41c-.81.86-1.66,1.7-2.49,2.55C646.52,490.11,647.36,489.28,648.18,488.41Z" transform="translate(-321.54 -223.74)"/><path class="cls-2" d="M636.23,500.22c-2,1.87-4.05,3.7-6.11,5.51Q633.17,503.06,636.23,500.22Z" transform="translate(-321.54 -223.74)"/><path class="cls-2" d="M653.89,482.14c-.7.8-1.44,1.58-2.16,2.38C652.45,483.72,653.19,483,653.89,482.14Z" transform="translate(-321.54 -223.74)"/><path class="cls-2" d="M642.27,494.45c-1,.95-2,1.88-2.95,2.82C640.3,496.33,641.29,495.41,642.27,494.45Z" transform="translate(-321.54 -223.74)"/><path class="cls-2" d="M651.73,484.52c-1.18,1.3-2.34,2.62-3.55,3.89C649.39,487.13,650.56,485.82,651.73,484.52Z" transform="translate(-321.54 -223.74)"/><path class="cls-2" d="M639.32,497.27c-1,1-2.06,2-3.09,3C637.27,499.25,638.29,498.25,639.32,497.27Z" transform="translate(-321.54 -223.74)"/><path class="cls-2" d="M653.89,482.14a161.44,161.44,0,0,0,19.28-26.88,92.38,92.38,0,0,0,9-22.13l-.1-1.28C677.87,450.16,666.93,467.2,653.89,482.14Z" transform="translate(-321.54 -223.74)"/><path class="cls-2" d="M645.69,491c-1.14,1.17-2.27,2.35-3.42,3.49C643.43,493.3,644.55,492.13,645.69,491Z" transform="translate(-321.54 -223.74)"/><path class="cls-1" d="M678.83,390.3l-2.29-29.24a30,30,0,0,0-29.91-27.66h-213a30,30,0,0,0-29.89,27.44L384.8,585.11s25.54,5.32,88.7-4.75c42.38-6.75,82.83-24.36,119.34-46.74l1.34-.83c34-21,67.28-48.22,83-86a97.16,97.16,0,0,0,3.86-11l.18-.65c.3-1.08.57-2.16.82-3.25ZM470,372.53a10.68,10.68,0,1,1,10.68-10.67A10.67,10.67,0,0,1,470,372.53Zm140.58,0a10.68,10.68,0,1,1,10.67-10.67A10.68,10.68,0,0,1,610.57,372.53Z" transform="translate(-321.54 -223.74)"/><path class="cls-3" d="M383.18,595.12,382,604.54a30,30,0,0,0,29.78,33.64H666.28a30,30,0,0,0,29.91-32.25l-8.26-109.64c.19,2.55-13.1,22.84-24.68,34.16C605,587.33,523,600.37,442.49,600.22,405.58,600.15,383.18,595.12,383.18,595.12Z" transform="translate(-321.54 -223.74)"/><circle class="cls-3" cx="408.97" cy="214.44" r="26.5"/><circle class="cls-1" cx="382.47" cy="258.4" r="7.29"/><path class="cls-1" d="M377.35,558.61a7.29,7.29,0,1,1-7.29-7.29A7.29,7.29,0,0,1,377.35,558.61Z" transform="translate(-321.54 -223.74)"/><path class="cls-3" d="M362.77,586.52a20.62,20.62,0,1,1-20.62-20.62A20.62,20.62,0,0,1,362.77,586.52Z" transform="translate(-321.54 -223.74)"/></svg>